<svg width="24" height="24" viewBox="0 0 24 24" fill="none" xmlns="http://www.w3.org/2000/svg">
<path d="M19.1006 16.5098C19.3286 16.5563 19.5 16.7583 19.5 17C19.5 17.2417 19.3286 17.4437 19.1006 17.4902L19 17.5H5C4.72386 17.5 4.5 17.2761 4.5 17C4.5 16.7239 4.72386 16.5 5 16.5H19L19.1006 16.5098ZM19.1006 11.5098C19.3286 11.5563 19.5 11.7583 19.5 12C19.5 12.2417 19.3286 12.4437 19.1006 12.4902L19 12.5H5C4.72386 12.5 4.5 12.2761 4.5 12C4.5 11.7239 4.72386 11.5 5 11.5H19L19.1006 11.5098ZM14.0322 6.5C14.0758 6.84942 14.1643 7.18457 14.292 7.5H5C4.72386 7.5 4.5 7.27614 4.5 7C4.5 6.72386 4.72386 6.5 5 6.5H14.0322ZM19.1006 6.50977C19.3286 6.55629 19.5 6.75829 19.5 7C19.5 7.24171 19.3286 7.44371 19.1006 7.49023L19 7.5H16.6807C16.3846 7.23938 16.1669 6.89376 16.0654 6.5H19L19.1006 6.50977Z" fill="#6A6A6A"/>
<circle cx="18" cy="6" r="2" fill="#6A6A6A"/>
</svg>
